<?xml version="1.0" encoding="UTF-8" standalone="no"?>
<!-- Uploaded to: SVG Repo, www.svgrepo.com, Generator: SVG Repo Mixer Tools -->

<svg
   xmlns:dc="http://purl.org/dc/elements/1.1/"
   xmlns:cc="http://creativecommons.org/ns#"
   xmlns:rdf="http://www.w3.org/1999/02/22-rdf-syntax-ns#"
   xmlns:svg="http://www.w3.org/2000/svg"
   xmlns="http://www.w3.org/2000/svg"
   xmlns:sodipodi="http://sodipodi.sourceforge.net/DTD/sodipodi-0.dtd"
   xmlns:inkscape="http://www.inkscape.org/namespaces/inkscape"
   fill="#000000"
   height="800px"
   width="800px"
   version="1.1"
   id="Capa_1"
   viewBox="0 0 219.151 219.151"
   xml:space="preserve"
   sodipodi:docname="backbtn.svg"
   inkscape:version="0.92.5 (2060ec1f9f, 2020-04-08)"><metadata
   id="metadata858"><rdf:RDF><cc:Work
       rdf:about=""><dc:format>image/svg+xml</dc:format><dc:type
         rdf:resource="http://purl.org/dc/dcmitype/StillImage" /></cc:Work></rdf:RDF></metadata><defs
   id="defs856" /><sodipodi:namedview
   pagecolor="#ffffff"
   bordercolor="#666666"
   borderopacity="1"
   objecttolerance="10"
   gridtolerance="10"
   guidetolerance="10"
   inkscape:pageopacity="0"
   inkscape:pageshadow="2"
   inkscape:window-width="640"
   inkscape:window-height="480"
   id="namedview854"
   showgrid="false"
   inkscape:zoom="1.3475"
   inkscape:cx="400"
   inkscape:cy="400"
   inkscape:current-layer="Capa_1" />
<circle
   style="fill:#00ff00;fill-rule:evenodd;stroke:#000000;stroke-width:0.27393875px;stroke-linecap:butt;stroke-linejoin:miter;stroke-opacity:1"
   id="path860"
   cx="109.5755"
   cy="109.5755"
   r="109.16891" /><g
   id="g851">
	<path
   d="M109.576,219.151c60.419,0,109.573-49.156,109.573-109.576C219.149,49.156,169.995,0,109.576,0S0.002,49.156,0.002,109.575   C0.002,169.995,49.157,219.151,109.576,219.151z M109.576,15c52.148,0,94.573,42.426,94.574,94.575   c0,52.149-42.425,94.575-94.574,94.576c-52.148-0.001-94.573-42.427-94.573-94.577C15.003,57.427,57.428,15,109.576,15z"
   id="path847" />
	<path
   d="M94.861,156.507c2.929,2.928,7.678,2.927,10.606,0c2.93-2.93,2.93-7.678-0.001-10.608l-28.82-28.819l83.457-0.008   c4.142-0.001,7.499-3.358,7.499-7.502c-0.001-4.142-3.358-7.498-7.5-7.498l-83.46,0.008l28.827-28.825   c2.929-2.929,2.929-7.679,0-10.607c-1.465-1.464-3.384-2.197-5.304-2.197c-1.919,0-3.838,0.733-5.303,2.196l-41.629,41.628   c-1.407,1.406-2.197,3.313-2.197,5.303c0.001,1.99,0.791,3.896,2.198,5.305L94.861,156.507z"
   id="path849" />
</g>
</svg>