<?xml version="1.0" encoding="UTF-8" standalone="no"?>
<!-- Uploaded to: SVG Repo, www.svgrepo.com, Generator: SVG Repo Mixer Tools -->

<svg
   xmlns:dc="http://purl.org/dc/elements/1.1/"
   xmlns:cc="http://creativecommons.org/ns#"
   xmlns:rdf="http://www.w3.org/1999/02/22-rdf-syntax-ns#"
   xmlns:svg="http://www.w3.org/2000/svg"
   xmlns="http://www.w3.org/2000/svg"
   xmlns:sodipodi="http://sodipodi.sourceforge.net/DTD/sodipodi-0.dtd"
   xmlns:inkscape="http://www.inkscape.org/namespaces/inkscape"
   width="666.66669"
   height="666.66669"
   viewBox="0 0 20.000001 20.000001"
   version="1.1"
   id="svg943"
   sodipodi:docname="help.svg"
   style="fill:none"
   inkscape:version="0.92.5 (2060ec1f9f, 2020-04-08)">
  <metadata
     id="metadata949">
    <rdf:RDF>
      <cc:Work
         rdf:about="">
        <dc:format>image/svg+xml</dc:format>
        <dc:type
           rdf:resource="http://purl.org/dc/dcmitype/StillImage" />
      </cc:Work>
    </rdf:RDF>
  </metadata>
  <defs
     id="defs947" />
  <sodipodi:namedview
     pagecolor="#ffffff"
     bordercolor="#666666"
     borderopacity="1"
     objecttolerance="10"
     gridtolerance="10"
     guidetolerance="10"
     inkscape:pageopacity="0"
     inkscape:pageshadow="2"
     inkscape:window-width="640"
     inkscape:window-height="480"
     id="namedview945"
     showgrid="false"
     inkscape:zoom="1.3475"
     inkscape:cx="200.12369"
     inkscape:cy="333.33333"
     inkscape:current-layer="svg943" />
  <path
     d="M 7,8 C 7,7.40666 7.17595,6.82664 7.50559,6.33329 7.83524,5.83994 8.3038,5.45543 8.852,5.22836 9.4001,5.0013 10.0033,4.94189 10.5853,5.05765 c 0.5819,0.11575 1.1165,0.40147 1.536,0.82103 0.4196,0.41956 0.7053,0.95411 0.8211,1.53605 0.1157,0.58194 0.0563,1.18517 -0.1708,1.73337 -0.227,0.5481 -0.6115,1.0167 -1.1049,1.3463 C 11.1734,10.8241 10.5933,11 10,11 v 1 m 9,-2 c 0,4.9706 -4.0294,9 -9,9 -4.97056,0 -9,-4.0294 -9,-9 0,-4.97056 4.02944,-9 9,-9 4.9706,0 9,4.02944 9,9 z"
     id="path939"
     inkscape:connector-curvature="0"
     style="stroke:#000000;stroke-width:2;stroke-linecap:round;stroke-linejoin:round;fill:#ffff00" />
  <circle
     cx="10"
     cy="15"
     r="1"
     id="circle941"
     style="fill:#000000" />
</svg>
