<?xml version="1.0" encoding="UTF-8" standalone="no"?>
<!-- Uploaded to: SVG Repo, www.svgrepo.com, Generator: SVG Repo Mixer Tools -->

<svg
   xmlns:dc="http://purl.org/dc/elements/1.1/"
   xmlns:cc="http://creativecommons.org/ns#"
   xmlns:rdf="http://www.w3.org/1999/02/22-rdf-syntax-ns#"
   xmlns:svg="http://www.w3.org/2000/svg"
   xmlns="http://www.w3.org/2000/svg"
   xmlns:sodipodi="http://sodipodi.sourceforge.net/DTD/sodipodi-0.dtd"
   xmlns:inkscape="http://www.inkscape.org/namespaces/inkscape"
   fill="#000000"
   version="1.1"
   id="Capa_1"
   width="800px"
   height="800px"
   viewBox="0 0 490.318 490.318"
   xml:space="preserve"
   sodipodi:docname="info.svg"
   inkscape:version="0.92.5 (2060ec1f9f, 2020-04-08)"><metadata
   id="metadata933"><rdf:RDF><cc:Work
       rdf:about=""><dc:format>image/svg+xml</dc:format><dc:type
         rdf:resource="http://purl.org/dc/dcmitype/StillImage" /></cc:Work></rdf:RDF></metadata><defs
   id="defs931" /><sodipodi:namedview
   pagecolor="#ffffff"
   bordercolor="#666666"
   borderopacity="1"
   objecttolerance="10"
   gridtolerance="10"
   guidetolerance="10"
   inkscape:pageopacity="0"
   inkscape:pageshadow="2"
   inkscape:window-width="640"
   inkscape:window-height="480"
   id="namedview929"
   showgrid="false"
   inkscape:zoom="1.3475"
   inkscape:cx="400"
   inkscape:cy="400"
   inkscape:current-layer="Capa_1" />
<ellipse
   style="fill:#00ffff;fill-rule:evenodd;stroke:#000000;stroke-width:0.61289752px;stroke-linecap:butt;stroke-linejoin:miter;stroke-opacity:1"
   id="path935"
   cx="244.2493"
   cy="243.79448"
   rx="243.79448"
   ry="244.24933" /><g
   id="g926">
	<g
   id="g924">
		<g
   id="g922">
			<path
   d="M245.148,0C109.967,0,0.009,109.98,0.009,245.162c0,135.182,109.958,245.156,245.139,245.156     c135.186,0,245.162-109.978,245.162-245.156C490.31,109.98,380.333,0,245.148,0z M245.148,438.415     c-106.555,0-193.234-86.698-193.234-193.253c0-106.555,86.68-193.258,193.234-193.258c106.559,0,193.258,86.703,193.258,193.258     C438.406,351.717,351.706,438.415,245.148,438.415z"
   id="path916" />
			<path
   d="M270.036,221.352h-49.771c-8.351,0-15.131,6.78-15.131,15.118v147.566c0,8.352,6.78,15.119,15.131,15.119h49.771     c8.351,0,15.131-6.77,15.131-15.119V236.471C285.167,228.133,278.387,221.352,270.036,221.352z"
   id="path918" />
			<path
   d="M245.148,91.168c-24.48,0-44.336,19.855-44.336,44.336c0,24.484,19.855,44.34,44.336,44.34     c24.485,0,44.342-19.855,44.342-44.34C289.489,111.023,269.634,91.168,245.148,91.168z"
   id="path920" />
		</g>
	</g>
</g>
</svg>