<?xml version="1.0" encoding="UTF-8" standalone="no"?>
<!-- Uploaded to: SVG Repo, www.svgrepo.com, Generator: SVG Repo Mixer Tools -->

<svg
   xmlns:dc="http://purl.org/dc/elements/1.1/"
   xmlns:cc="http://creativecommons.org/ns#"
   xmlns:rdf="http://www.w3.org/1999/02/22-rdf-syntax-ns#"
   xmlns:svg="http://www.w3.org/2000/svg"
   xmlns="http://www.w3.org/2000/svg"
   xmlns:sodipodi="http://sodipodi.sourceforge.net/DTD/sodipodi-0.dtd"
   xmlns:inkscape="http://www.inkscape.org/namespaces/inkscape"
   width="1137.0209"
   height="1129.6395"
   viewBox="0 0 45.480835 45.185581"
   version="1.1"
   id="svg866"
   sodipodi:docname="radar.svg"
   style="fill:none"
   inkscape:version="0.92.5 (2060ec1f9f, 2020-04-08)">
  <metadata
     id="metadata870">
    <rdf:RDF>
      <cc:Work
         rdf:about="">
        <dc:format>image/svg+xml</dc:format>
        <dc:type
           rdf:resource="http://purl.org/dc/dcmitype/StillImage" />
      </cc:Work>
    </rdf:RDF>
  </metadata>
  <sodipodi:namedview
     pagecolor="#ffffff"
     bordercolor="#666666"
     borderopacity="1"
     objecttolerance="10"
     gridtolerance="10"
     guidetolerance="10"
     inkscape:pageopacity="0"
     inkscape:pageshadow="2"
     inkscape:window-width="640"
     inkscape:window-height="480"
     id="namedview868"
     showgrid="false"
     inkscape:zoom="0.9"
     inkscape:cx="569.55217"
     inkscape:cy="606.61709"
     inkscape:current-layer="svg866" />
  <g
     clip-path="url(#clip0_901_2624)"
     id="g859"
     transform="translate(6.7406687,6.5928899)"
     style="stroke:#008000">
    <path
       d="m 29.2695,22.999 c 1.105,-2.089 1.73,-4.472 1.73,-6.999 0,-8.284 -6.715,-15 -15,-15 L 16,16 M 13,1.3008 c -6.847,1.389 -12,7.442 -12,14.699 0,8.284 6.716,15 15,15 3.189,0 6.11,-0.937 8.541,-2.634 M 8.5166,21.002 c 1.615,2.41 4.364,3.998 7.483,3.998 4.971,0 9,-4.029 9,-9 0,-4.971 -4.029,-9 -9,-9 M 13,7.5117 c -2.91,1.028 -5.113,3.425 -5.777,6.488 M 9,16 c 0,-1.104 -0.896,-2 -2,-2 -1.104,0 -2,0.896 -2,2 0,1.104 0.896,2 2,2 1.104,0 2,-0.896 2,-2 z m 19,11 c 0,-1.104 -0.896,-2 -2,-2 -1.104,0 -2,0.896 -2,2 0,1.104 0.896,2 2,2 1.104,0 2,-0.896 2,-2 z"
       id="path857"
       inkscape:connector-curvature="0"
       style="stroke:#008000;stroke-width:2;stroke-linecap:round;stroke-linejoin:round" />
  </g>
  <defs
     id="defs864">
    <clipPath
       id="clip0_901_2624">
      <rect
         width="32"
         height="32"
         id="rect861"
         x="0"
         y="0"
         style="fill:#ffffff" />
    </clipPath>
  </defs>
  <rect
     style="opacity:1;fill:none;fill-opacity:1;stroke:#000000;stroke-width:1.81417322;stroke-linecap:butt;stroke-linejoin:miter;stroke-miterlimit:4;stroke-dasharray:none;stroke-dashoffset:0;stroke-opacity:1"
     id="rect872"
     width="43.666664"
     height="43.371407"
     x="0.90708661"
     y="0.90708661"
     rx="2.9999998"
     ry="3" />
</svg>
