<?xml version="1.0" encoding="UTF-8" standalone="no"?>
<!-- Uploaded to: SVG Repo, www.svgrepo.com, Generator: SVG Repo Mixer Tools -->

<svg
   xmlns:dc="http://purl.org/dc/elements/1.1/"
   xmlns:cc="http://creativecommons.org/ns#"
   xmlns:rdf="http://www.w3.org/1999/02/22-rdf-syntax-ns#"
   xmlns:svg="http://www.w3.org/2000/svg"
   xmlns="http://www.w3.org/2000/svg"
   xmlns:sodipodi="http://sodipodi.sourceforge.net/DTD/sodipodi-0.dtd"
   xmlns:inkscape="http://www.inkscape.org/namespaces/inkscape"
   version="1.1"
   id="_x32_"
   width="800"
   height="409.47186"
   viewBox="0 0 512 262.06199"
   xml:space="preserve"
   sodipodi:docname="stealth.svg"
   inkscape:version="0.92.5 (2060ec1f9f, 2020-04-08)"><metadata
   id="metadata877"><rdf:RDF><cc:Work
       rdf:about=""><dc:format>image/svg+xml</dc:format><dc:type
         rdf:resource="http://purl.org/dc/dcmitype/StillImage" /><dc:title /></cc:Work></rdf:RDF></metadata><defs
   id="defs875" /><sodipodi:namedview
   pagecolor="#ffffff"
   bordercolor="#666666"
   borderopacity="1"
   objecttolerance="10"
   gridtolerance="10"
   guidetolerance="10"
   inkscape:pageopacity="0"
   inkscape:pageshadow="2"
   inkscape:window-width="640"
   inkscape:window-height="480"
   id="namedview873"
   showgrid="false"
   inkscape:zoom="1.3475"
   inkscape:cx="400"
   inkscape:cy="264.10514"
   inkscape:current-layer="_x32_" />
<style
   type="text/css"
   id="style866">
<![CDATA[
	.st0{fill:#000000;}
]]>
</style>
<g
   id="g870"
   transform="translate(0,-124.969)">
	<polygon
   class="st0"
   points="29.578,387.031 115.563,317.125 185.438,376.281 218.375,343.344 256,380.969 293.625,343.344 326.563,376.281 396.422,317.125 482.438,387.031 512,352.094 256,124.969 0,352.094 "
   id="polygon868"
   style="fill:#000000" />
</g>
<g
   id="g951"
   transform="matrix(0.54293505,0,0,0.54293505,187.34222,0)"
   style="stroke-width:1.17877817"><polygon
     id="polygon939"
     points="255.9231,212.32 127.9611,0 125.1661,9.5 125.1661,285.168 127.9611,287.958 "
     style="fill:#343434;stroke-width:1.17877817" /><polygon
     id="polygon941"
     points="0,212.32 127.962,287.959 127.962,154.158 127.962,0 "
     style="fill:#8c8c8c;stroke-width:1.17877817" /><polygon
     id="polygon943"
     points="255.9991,236.5866 127.9611,312.1866 126.3861,314.1066 126.3861,412.3056 127.9611,416.9066 "
     style="fill:#3c3c3b;stroke-width:1.17877817" /><polygon
     id="polygon945"
     points="0,236.5852 127.962,416.9052 127.962,312.1852 "
     style="fill:#8c8c8c;stroke-width:1.17877817" /><polygon
     id="polygon947"
     points="127.9611,154.1587 127.9611,287.9577 255.9211,212.3207 "
     style="fill:#141414;stroke-width:1.17877817" /><polygon
     id="polygon949"
     points="127.9609,154.1588 0.0009,212.3208 127.9609,287.9578 "
     style="fill:#393939;stroke-width:1.17877817" /></g></svg>